HIERARCHY
ROOT Hips
{
  OFFSET -1.56614 0.00 -1.85809
  CHANNELS 6 Xposition Yposition Zposition Zrotation Xrotation Yrotation
  JOINT LHipJoint
  {
    OFFSET 0 0 0
    CHANNELS 3 Zrotation Xrotation Yrotation
    JOINT LeftUpLeg
    {
      OFFSET 1.8 -1.4 0.085
      CHANNELS 3 Zrotation Xrotation Yrotation
      JOINT LeftLeg
      {
        OFFSET 2.215 -6 0
        CHANNELS 3 Zrotation Xrotation Yrotation
        JOINT LeftFoot
        {
          OFFSET 2.5 -6.9 0
          CHANNELS 3 Zrotation Xrotation Yrotation
          JOINT LeftToeBase
          {
            OFFSET 0.2 -0.5 1.95
            CHANNELS 3 Zrotation Xrotation Yrotation
            End Site
            {
              OFFSET 0 0 1
            }
          }
        }
      }
    }
  }
  JOINT RHipJoint
  {
    OFFSET 0 0 0
    CHANNELS 3 Zrotation Xrotation Yrotation
    JOINT RightUpLeg
    {
      OFFSET -1.8 -1.4 0.085
      CHANNELS 3 Zrotation Xrotation Yrotation
      JOINT RightLeg
      {
        OFFSET -2.215 -6 0
        CHANNELS 3 Zrotation Xrotation Yrotation
        JOINT RightFoot
        {
          OFFSET -2.5 -6.9 0
          CHANNELS 3 Zrotation Xrotation Yrotation
          JOINT RightToeBase
          {
            OFFSET -0.2 -0.5 1.95
            CHANNELS 3 Zrotation Xrotation Yrotation
            End Site
            {
              OFFSET 0 0 1
            }
          }
        }
      }
    }
  }
  JOINT LowerBack
  {
    OFFSET 0 0 0
    CHANNELS 3 Zrotation Xrotation Yrotation
    JOINT Spine
    {
      OFFSET -0.087 1.94 -0.2889
      CHANNELS 3 Zrotation Xrotation Yrotation
      JOINT Spine1
      {
        OFFSET 0 1.95 0.06
        CHANNELS 3 Zrotation Xrotation Yrotation
        JOINT Neck
        {
          OFFSET 0 0 0
          CHANNELS 3 Zrotation Xrotation Yrotation
          JOINT Neck1
          {
            OFFSET 0 1.6 0.34
            CHANNELS 3 Zrotation Xrotation Yrotation
            JOINT Head
            {
              OFFSET 0 1.667 -0.24
              CHANNELS 3 Zrotation Xrotation Yrotation
              End Site
              {
                OFFSET 0 1.686 -0.12
              }
            }
          }
        }
        JOINT LeftShoulder
        {
          OFFSET 0 0 0
          CHANNELS 3 Zrotation Xrotation Yrotation
          JOINT LeftArm
          {
            OFFSET 2.7 1.55 -0.73
            CHANNELS 3 Zrotation Xrotation Yrotation
            JOINT LeftForeArm
            {
              OFFSET 5.45 0 0
              CHANNELS 3 Zrotation Xrotation Yrotation
              JOINT LeftHand
              {
                OFFSET 3.45 0 0
                CHANNELS 3 Zrotation Xrotation Yrotation
                JOINT LeftFingerBase
                {
                  OFFSET 0 0 0
                  CHANNELS 3 Zrotation Xrotation Yrotation
                  JOINT LeftHandIndex1
                  {
                    OFFSET 0.75 0 0
                    CHANNELS 3 Zrotation Xrotation Yrotation
                    End Site
                    {
                      OFFSET 0.6 0 0
                    }
                  }
                }
                JOINT LThumb
                {
                  OFFSET 0 0 0
                  CHANNELS 3 Zrotation Xrotation Yrotation
                  End Site
                  {
                    OFFSET 0.59 0 0.59
                  }
                }
              }
            }
          }
        }
        JOINT RightShoulder
        {
          OFFSET 0 0 0
          CHANNELS 3 Zrotation Xrotation Yrotation
          JOINT RightArm
          {
            OFFSET -2.7 1.55 -0.73
            CHANNELS 3 Zrotation Xrotation Yrotation
            JOINT RightForeArm
            {
              OFFSET -5.45 0 0
              CHANNELS 3 Zrotation Xrotation Yrotation
              JOINT RightHand
              {
                OFFSET -3.45 0 0
                CHANNELS 3 Zrotation Xrotation Yrotation
                JOINT RightFingerBase
                {
                  OFFSET 0 0 0
                  CHANNELS 3 Zrotation Xrotation Yrotation
                  JOINT RightHandIndex1
                  {
                    OFFSET -0.75 0 0
                    CHANNELS 3 Zrotation Xrotation Yrotation
                    End Site
                    {
                      OFFSET -0.6 0 0
                    }
                  }
                }
                JOINT RThumb
                {
                  OFFSET 0 0 0
                  CHANNELS 3 Zrotation Xrotation Yrotation
                  End Site
                  {
                    OFFSET -0.59 0 0.59
                  }
                }
              }
            }
          }
        }
      }
    }
  }
}
MOTION
Frames:	9
Frame Time:	0.00833333
0.462688 18.5372 -4.83215 -0.00258282 -0.00207635 -0.0015139 -3.06959e-019 7.76503e-019 -3.88251e-019 -18.349 -4.12273 1.6713 2.6521 2.83278 16.4866 -1.98255 1.93386 -18.287 -5.91112e-015 3.88251e-019 1.55301e-018 -3.06959e-019 7.76503e-019 -3.88251e-019 18.8616 -0.715115 -0.652679 0.081216 3.09391 -0.224512 0.51853 -2.36598 0.895606 -9.07528e-015 1.94126e-019 -3.88251e-019 -3.06959e-019 7.76503e-019 -3.88251e-019 -0.00267769 0.00311895 -0.000367498 0.00450836 -0.000990199 -0.00113263 -0.000254507 -15.9977 0.00296622 -0.00121011 21.0023 0.00104635 0.00461201 10.9952 0.000998886 0.341825 5.73138e-010 3.50353 -17.7132 -27.2181 -16.7019 1.47214 30.0767 -0.000151164 -0.858693 -0.642645 -0.0414045 -1.2424e-016 3.97569e-016 -1.59028e-015 3.15602e-007 4.71613e-008 2.14403e-007 -1.71452e-015 0 -1.59028e-015 -0.335137 0.00760563 -3.49661 24.5271 -45.5518 23.0137 3.91981 63.9457 0.00023683 3.09067 -2.68699 -10.3747 -1.68749e-006 8.36088e-008 -1.99334e-007 -5.42744e-007 4.64111e-008 -4.07504e-007 -1.98785e-016 1.59028e-015 -0 
0.462036 18.5374 -4.83216 -0.00258415 -0.0103386 -0.00770971 -5.87685e-019 -3.10601e-018 3.10601e-018 -18.3343 -4.1207 1.67955 2.63552 2.85087 16.4773 -1.97385 1.92483 -18.3037 5.0154e-015 0 1.2424e-017 -5.87685e-019 -3.10601e-018 3.10601e-018 18.8665 -0.780753 -0.620165 0.0852263 3.22901 -0.286324 0.519374 -2.417 0.916372 -1.44984e-015 1.55301e-018 -0 -5.87685e-019 -3.10601e-018 3.10601e-018 -0.0144036 0.0150976 -0.00176093 0.02388 -0.00449149 -0.00580148 -0.00448367 -15.9879 0.00296607 -0.00600608 21.0121 0.00541171 0.0243653 10.9731 0.00564084 0.341825 5.73138e-010 3.50353 -17.7127 -27.2182 -16.7012 1.46347 29.9711 -0.000151004 -0.872774 -0.635942 -0.0738987 1.16786e-015 4.96962e-016 -1.59028e-015 3.15602e-007 4.71613e-008 2.14403e-007 -4.22417e-016 3.47873e-016 -1.59028e-015 -0.335137 0.00760563 -3.49661 24.5315 -45.5574 23.0205 3.90676 63.9836 0.000237151 3.05842 -2.68696 -10.378 -1.68749e-006 8.36088e-008 -1.99334e-007 -5.42744e-007 4.64111e-008 -4.07504e-007 -7.95139e-016 -1.59028e-015 -7.95139e-016 
0.461373 18.5376 -4.83216 -0.00258728 -0.0185939 -0.013928 4.06451e-019 0 -3.10601e-018 -18.3193 -4.11884 1.68791 2.61859 2.86941 16.4677 -1.96512 1.91562 -18.3206 -5.17056e-015 -3.10601e-018 -0 4.06451e-019 0 -3.10601e-018 18.8716 -0.848479 -0.586719 0.0896512 3.36788 -0.349849 0.520082 -2.46938 0.937692 -7.21165e-015 3.10601e-018 -0 4.06451e-019 0 -3.10601e-018 -0.0262914 0.0269968 -0.00314212 0.0434652 -0.00791925 -0.0104925 -0.00870333 -15.978 0.00296593 -0.0107964 21.022 0.00980638 0.0443308 10.9506 0.0103856 0.341825 5.73138e-010 3.50353 -17.7121 -27.2184 -16.7005 1.45468 29.864 -0.000150841 -0.887747 -0.629136 -0.106849 2.6339e-015 -9.93923e-017 -0 3.15602e-007 4.71613e-008 2.14403e-007 1.04362e-015 -2.48481e-016 -0 -0.335137 0.00760563 -3.49661 24.536 -45.5631 23.0274 3.89352 64.0221 0.000237478 3.02584 -2.68694 -10.381 -1.68749e-006 8.36088e-008 -1.99334e-007 -5.42744e-007 4.64111e-008 -4.07504e-007 3.97569e-016 1.59028e-015 -7.95139e-016 
0.460827 18.5378 -4.83217 -0.00259211 -0.0269252 -0.0198994 9.32713e-019 0 6.21202e-018 -18.308 -4.11521 1.69496 2.60565 2.88307 16.4626 -1.95679 1.90846 -18.336 1.47343e-015 -3.10601e-018 -0 9.32713e-019 0 6.21202e-018 18.8753 -0.89325 -0.563534 0.0929584 3.46517 -0.394753 0.522714 -2.50672 0.952936 1.38087e-016 3.10601e-018 6.21202e-018 9.32713e-019 0 6.21202e-018 -0.0363912 0.0397709 -0.00465805 0.0606938 -0.0121558 -0.01494 -0.0130274 -15.969 0.0029658 -0.0156679 21.0309 0.0138854 0.0620044 10.9328 0.0139916 0.341825 5.73138e-010 3.50353 -17.7118 -27.2183 -16.6991 1.44714 29.7724 -0.000150703 -0.892822 -0.623466 -0.134786 1.55301e-016 3.23025e-016 -0 3.15602e-007 4.71613e-008 2.14403e-007 -1.43498e-015 -2.48481e-017 -0 -0.335137 0.00760563 -3.49661 24.5385 -45.5683 23.0331 3.88231 64.0544 0.000237753 2.99689 -2.6869 -10.3855 -1.68749e-006 8.36088e-008 -1.99334e-007 -5.42744e-007 4.64111e-008 -4.07504e-007 -3.97569e-015 0 -7.95139e-016 
0.460525 18.5379 -4.83218 -0.00204944 -0.0355265 -0.0253663 -5.45978e-020 1.2424e-017 -6.21202e-018 -18.3045 -4.10772 1.69928 2.60125 2.88635 16.4671 -1.94939 1.90564 -18.3485 -1.18012e-014 -6.21202e-018 1.2424e-017 -5.45978e-020 1.2424e-017 -6.21202e-018 18.876 -0.889205 -0.562142 0.0933475 3.47426 -0.400142 0.529481 -2.5122 0.955305 -3.95418e-015 -3.10601e-018 -1.2424e-017 -5.45978e-020 1.2424e-017 -6.21202e-018 -0.042746 0.0545062 -0.00647006 0.0730087 -0.0180709 -0.0188958 -0.0176356 -15.9623 0.0029657 -0.0207789 21.0377 0.0173413 0.0750092 10.9249 0.0151983 0.341825 5.73138e-010 3.50353 -17.7124 -27.2176 -16.696 1.44212 29.7121 -0.000150612 -0.876968 -0.620122 -0.152502 -2.19284e-015 2.48481e-016 -3.18055e-015 3.15602e-007 4.71613e-008 2.14403e-007 -3.78312e-015 9.93923e-017 -3.18055e-015 -0.335137 0.00760563 -3.49661 24.5368 -45.5726 23.0361 3.87537 64.0738 0.000237919 2.97555 -2.68683 -10.3929 -1.68749e-006 8.36088e-008 -1.99334e-007 -5.42744e-007 4.64111e-008 -4.07504e-007 -1.19271e-015 0 -0 
0.460542 18.5378 -4.8322 0.000287027 -0.0461407 -0.0303831 9.09964e-020 0 -0 -18.3124 -4.09264 1.70045 2.60999 2.87415 16.4864 -1.94418 1.90853 -18.3582 -4.41559e-015 1.2424e-017 -0 9.09964e-020 0 -0 18.8721 -0.8127 -0.592637 0.0895068 3.35608 -0.348612 0.544058 -2.47241 0.939359 -7.23568e-015 0 -6.21202e-018 9.09964e-020 0 -0 -0.0443835 0.0736476 -0.00886347 0.079466 -0.0258675 -0.0225094 -0.0235891 -15.959 0.00296565 -0.0272709 21.041 0.0205986 0.0842245 10.9303 0.0131518 0.341825 5.73138e-010 3.50353 -17.7145 -27.216 -16.6902 1.43917 29.677 -0.00015056 -0.831604 -0.61892 -0.161539 2.01891e-015 2.98177e-016 -0 3.15602e-007 4.71613e-008 2.14403e-007 4.28629e-016 1.49089e-016 -0 -0.335137 0.00760563 -3.49661 24.5298 -45.5758 23.036 3.87369 64.0779 0.000237953 2.96371 -2.68672 -10.406 -1.68749e-006 8.36088e-008 -1.99334e-007 -5.42744e-007 4.64111e-008 -4.07504e-007 7.95139e-016 -1.59028e-015 -0 
0.460744 18.5376 -4.83222 0.00264562 -0.0571104 -0.0350399 -7.76503e-019 3.72721e-017 1.2424e-017 -18.3264 -4.07441 1.69961 2.62534 2.85398 16.5132 -1.93974 1.91468 -18.3659 -2.63412e-015 0 -1.2424e-017 -7.76503e-019 3.72721e-017 1.2424e-017 18.8661 -0.6987 -0.639829 0.0838609 3.17048 -0.266916 0.56201 -2.40834 0.913599 -3.67477e-015 -3.10601e-018 -0 -7.76503e-019 3.72721e-017 1.2424e-017 -0.0432203 0.094433 -0.0114974 0.0822803 -0.0348975 -0.025781 -0.0298459 -15.9574 0.00296562 -0.0340404 21.0425 0.0234436 0.0901426 10.9431 0.00929052 0.341825 5.73138e-010 3.50353 -17.7172 -27.2139 -16.6831 1.438 29.6641 -0.000150541 -0.770309 -0.619384 -0.163322 1.85739e-015 -7.45443e-017 1.59028e-015 3.15602e-007 4.71613e-008 2.14403e-007 2.67117e-016 -4.22417e-016 1.59028e-015 -0.335137 0.00760563 -3.49661 24.5196 -45.5782 23.0339 3.87518 64.0724 0.000237906 2.95755 -2.68659 -10.4215 -1.68749e-006 8.36088e-008 -1.99334e-007 -5.42744e-007 4.64111e-008 -4.07504e-007 -2.18663e-015 -3.18055e-015 7.95139e-016 
0.460952 18.5376 -4.83224 0.00474235 -0.0654937 -0.0393507 3.03321e-019 -2.48481e-017 -0 -18.3388 -4.06002 1.69802 2.63789 2.83644 16.5367 -1.93379 1.9209 -18.3714 -3.33766e-015 3.10601e-018 -1.2424e-017 3.03321e-019 -2.48481e-017 -0 18.8608 -0.596481 -0.682482 0.0791518 3.00048 -0.192062 0.576386 -2.34883 0.889706 -6.9276e-015 0 -3.10601e-018 3.03321e-019 -2.48481e-017 -0 -0.0416424 0.112407 -0.0138379 0.0840326 -0.0444769 -0.0285648 -0.0345896 -15.9549 0.00296559 -0.0391463 21.0451 0.0253026 0.0922732 10.9555 0.00552632 0.341825 5.73138e-010 3.50353 -17.7193 -27.2122 -16.6768 1.43886 29.6766 -0.000150559 -0.71164 -0.62134 -0.157416 9.97029e-016 6.70898e-016 -0 3.15602e-007 4.71613e-008 2.14403e-007 -5.93248e-016 3.23025e-016 -0 -0.335137 0.00760563 -3.49661 24.5089 -45.5807 23.0311 3.8773 64.0641 0.000237836 2.95235 -2.68648 -10.4342 -1.68749e-006 8.36088e-008 -1.99334e-007 -5.42744e-007 4.64111e-008 -4.07504e-007 1.78906e-015 -1.59028e-015 1.59028e-015 
0.460992 18.5377 -4.83229 0.00627821 -0.0682839 -0.0432992 2.24458e-019 0 6.21202e-018 -18.3424 -4.05658 1.69684 2.63828 2.83218 16.5463 -1.92395 1.92402 -18.3747 -8.55113e-015 -3.10601e-018 -0 2.24458e-019 0 6.21202e-018 18.8586 -0.554833 -0.699588 0.0772997 2.92802 -0.160552 0.580135 -2.32231 0.879189 -4.41051e-015 -6.21202e-018 -9.31803e-018 2.24458e-019 0 6.21202e-018 -0.0420591 0.123109 -0.015375 0.0873529 -0.0539723 -0.0307478 -0.0360306 -15.9487 0.00296549 -0.0406748 21.0513 0.0255968 0.0899398 10.9596 0.00371813 0.341825 5.73138e-010 3.50353 -17.7195 -27.2117 -16.6735 1.44207 29.7191 -0.000150623 -0.673537 -0.624709 -0.142918 -2.76435e-016 3.97569e-016 -3.18055e-015 3.15602e-007 4.71613e-008 2.14403e-007 -1.86671e-015 4.96962e-017 -3.18055e-015 -0.335137 0.00760563 -3.49661 24.5002 -45.5839 23.0287 3.87759 64.0596 0.000237798 2.94353 -2.68644 -10.439 -1.68749e-006 8.36088e-008 -1.99334e-007 -5.42744e-007 4.64111e-008 -4.07504e-007 -9.93923e-016 3.18055e-015 -7.95139e-016 
